<svg width="49" height="49" viewBox="0 0 49 49" fill="none" xmlns="http://www.w3.org/2000/svg">
<path fill-rule="evenodd" clip-rule="evenodd" d="M4.5 22.5H44.5V24.5C44.5 32.0424 44.5 35.8138 42.1568 38.1568C41.548 38.7656 40.8428 39.2164 40 39.5498V44.5C40 45.3284 39.3284 46 38.5 46C37.6716 46 37 45.3284 37 44.5V40.2426C34.8602 40.5 32.1128 40.5 28.5 40.5H20.5C16.8873 40.5 14.1398 40.5 12 40.2426V44.5C12 45.3284 11.3284 46 10.5 46C9.67158 46 9 45.3284 9 44.5V39.5498C8.15722 39.2164 7.45198 38.7656 6.84314 38.1568C4.5 35.8138 4.5 32.0424 4.5 24.5V22.5ZM17 31.5C17 30.6716 17.6716 30 18.5 30H30.5C31.3284 30 32 30.6716 32 31.5C32 32.3284 31.3284 33 30.5 33H18.5C17.6716 33 17 32.3284 17 31.5Z" fill="#626754"/>
<path d="M6.84314 6.84314C4.5 9.1863 4.5 12.9575 4.5 20.5V22.5H44.5V20.5C44.5 12.9575 44.5 9.1863 42.1568 6.84314C39.8138 4.5 36.0424 4.5 28.5 4.5H20.5C12.9575 4.5 9.1863 4.5 6.84314 6.84314Z" fill="#626754" fill-opacity="0.56"/>
<path d="M18.5 12C17.6716 12 17 12.6716 17 13.5C17 14.3284 17.6716 15 18.5 15H30.5C31.3284 15 32 14.3284 32 13.5C32 12.6716 31.3284 12 30.5 12H18.5Z" fill="#626754"/>
</svg>
