<svg width="49" height="49" viewBox="0 0 49 49" fill="none" xmlns="http://www.w3.org/2000/svg">
<path fill-rule="evenodd" clip-rule="evenodd" d="M15.083 10.0714C10.076 11.5464 6.57388 16.0945 6.50114 21.3328C6.5 21.415 6.5 21.5074 6.5 21.6922V26.3386C6.70394 26.3384 6.9112 26.3798 7.10958 26.4672C18.1813 31.3548 30.8194 31.3548 41.8912 26.4672C42.0894 26.3798 42.2964 26.3384 42.5 26.3386V21.6922C42.5 21.5074 42.5 21.415 42.4988 21.3328C42.4262 16.0945 38.924 11.5464 33.917 10.0714C33.3616 9.8894 31.6784 9.56398 30.9064 9.42402C26.6664 8.70372 22.3338 8.7037 18.0938 9.424C17.2845 9.57716 15.5494 9.92108 15.083 10.0714ZM20.5 24.352C19.6716 24.352 19 25.019 19 25.8418C19 26.6648 19.6716 27.3318 20.5 27.3318H28.5C29.3284 27.3318 30 26.6648 30 25.8418C30 25.019 29.3284 24.352 28.5 24.352H20.5Z" fill="#626754"/>
<path d="M18.2463 8.4835C18.8578 6.73298 20.533 5.47978 22.499 5.47978H26.499C28.4652 5.47978 30.1404 6.73298 30.7518 8.4835C30.8428 8.74376 30.887 9.0441 30.9054 9.42366C31.6774 9.56362 33.3606 9.88906 33.9162 10.0711V9.94906C33.9162 9.27202 33.893 8.38522 33.5862 7.50672C32.5688 4.59428 29.782 2.5 26.499 2.5H22.499C19.2161 2.5 16.4294 4.59428 15.412 7.50672C15.1051 8.38522 15.082 9.27202 15.082 9.94906V10.0711C15.5484 9.92074 17.2836 9.57682 18.0928 9.42364C18.1111 9.0441 18.1553 8.74376 18.2463 8.4835Z" fill="#626754" fill-opacity="0.57"/>
<path d="M42.5 29.4533C40.7 30.2171 38.8628 30.8613 37.0004 31.3859V33.7875C37.0004 34.6103 36.3288 35.2775 35.5004 35.2775C34.672 35.2775 34.0004 34.6103 34.0004 33.7875V32.1233C24.8452 34.0505 15.2365 33.1603 6.5 29.4531V32.5457C6.5 36.7531 9.44202 40.3959 13.5771 41.3085C20.7712 42.8965 28.2288 42.8965 35.423 41.3085C39.558 40.3959 42.5 36.7531 42.5 32.5457V29.4533Z" fill="#626754" fill-opacity="0.57"/>
</svg>
