<svg width="38" height="38" viewBox="0 0 38 38" fill="none" xmlns="http://www.w3.org/2000/svg">
<path d="M26.6124 21.0675C26.6465 21.4726 26.596 21.8804 26.4641 22.2651C26.3323 22.6496 26.122 23.0027 25.8466 23.3018C25.5712 23.6008 25.2367 23.8395 24.8643 24.0025C24.4918 24.1656 24.0895 24.2495 23.6829 24.249H12.5004C10.9884 24.249 9.66541 23.01 9.54991 21.5085L8.98291 13.6335C8.85691 11.8905 10.1799 10.4729 11.9334 10.4729H25.4889M29.4999 8.5H27.6729C26.5389 8.5 25.6464 9.4765 25.7409 10.6L26.2659 16.9525M22.1499 14.8H9.54991M14.5374 29.5C14.1893 29.5 13.8554 29.3617 13.6093 29.1156C13.3632 28.8695 13.2249 28.5356 13.2249 28.1875C13.2249 27.8394 13.3632 27.5055 13.6093 27.2594C13.8554 27.0133 14.1893 26.875 14.5374 26.875C14.8855 26.875 15.2194 27.0133 15.4655 27.2594C15.7117 27.5055 15.8499 27.8394 15.8499 28.1875C15.8499 28.5356 15.7117 28.8695 15.4655 29.1156C15.2194 29.3617 14.8855 29.5 14.5374 29.5ZM22.9374 29.5C22.5893 29.5 22.2554 29.3617 22.0093 29.1156C21.7632 28.8695 21.6249 28.5356 21.6249 28.1875C21.6249 27.8394 21.7632 27.5055 22.0093 27.2594C22.2554 27.0133 22.5893 26.875 22.9374 26.875C23.2855 26.875 23.6194 27.0133 23.8655 27.2594C24.1117 27.5055 24.2499 27.8394 24.2499 28.1875C24.2499 28.5356 24.1117 28.8695 23.8655 29.1156C23.6194 29.3617 23.2855 29.5 22.9374 29.5Z" stroke="#6B6B6B" stroke-miterlimit="10" stroke-linecap="round" stroke-linejoin="round"/>
</svg>
