<svg width="49" height="49" viewBox="0 0 49 49" fill="none" xmlns="http://www.w3.org/2000/svg">
<g clip-path="url(#clip0_811_236)">
<g filter="url(#filter0_d_811_236)">
<path fill-rule="evenodd" clip-rule="evenodd" d="M13.923 8.02606C14.185 8.81198 13.7602 9.66146 12.9743 9.92344L11.938 10.2689C10.7033 10.6805 9.88982 10.9537 9.28528 11.23C8.71368 11.4913 8.45726 11.7006 8.28694 11.9157C8.11662 12.1307 7.97158 12.4283 7.84816 13.0446C7.71764 13.6963 7.63796 14.5507 7.52014 15.8469L6.78618 23.9204L6.68948 24.984C8.29574 23.7404 10.3114 23.0004 12.5 23.0004C17.1902 23.0004 21.0866 26.3994 21.8604 30.8684C22.7224 30.619 23.6112 30.4942 24.5 30.4942V33.4942C23.761 33.4942 23.022 33.6202 22.3158 33.8722L21.8778 34.0286C21.1468 38.5488 17.2265 42.0004 12.5 42.0004C7.26 42.0004 3.01088 37.7218 3 32.4844C3.00092 31.9228 3.05056 31.3728 3.14492 30.8382L4.53944 15.4984C4.64836 14.2998 4.7407 13.2838 4.90656 12.4555C5.08308 11.574 5.3655 10.7724 5.9352 10.0531C6.50488 9.33378 7.22054 8.87526 8.03814 8.50156C8.80642 8.15038 9.77428 7.8278 10.9161 7.44724L12.0256 7.07738C12.8116 6.81542 13.661 7.24016 13.923 8.02606Z" fill="#80AD01"/>
<path d="M42.3104 24.984C40.7042 23.7404 38.6886 23.0004 36.5 23.0004C31.8098 23.0004 27.9134 26.3994 27.1396 30.8684C26.2776 30.619 25.3888 30.4944 24.5 30.4942V33.4942C25.239 33.4942 25.978 33.6202 26.6842 33.8722L27.1222 34.0286C27.8532 38.5488 31.7734 42.0004 36.5 42.0004C41.74 42.0004 45.989 37.7218 46 32.4844C45.999 31.9228 45.9494 31.3728 45.855 30.8382L44.4606 15.4984C44.3516 14.2998 44.2592 13.2838 44.0934 12.4555C43.9168 11.574 43.6344 10.7724 43.0648 10.0531C42.495 9.33378 41.7794 8.87526 40.9618 8.50156C40.1936 8.15038 39.2258 7.8278 38.084 7.44724L36.9744 7.07738C36.1884 6.81542 35.339 7.24016 35.077 8.02606C34.815 8.81198 35.2398 9.66146 36.0256 9.92344L37.062 10.2689C38.2968 10.6805 39.1102 10.9537 39.7146 11.23C40.2862 11.4913 40.5428 11.7006 40.713 11.9157C40.8834 12.1307 41.0284 12.4283 41.1518 13.0446C41.2824 13.6963 41.362 14.5507 41.4798 15.8469L42.3104 24.984Z" fill="#80AD01" fill-opacity="0.56"/>
</g>
</g>
<defs>
<filter id="filter0_d_811_236" x="-1" y="7" width="51" height="43.0005" filterUnits="userSpaceOnUse" color-interpolation-filters="sRGB">
<feFlood flood-opacity="0" result="BackgroundImageFix"/>
<feColorMatrix in="SourceAlpha" type="matrix" values="0 0 0 0 0 0 0 0 0 0 0 0 0 0 0 0 0 0 127 0" result="hardAlpha"/>
<feOffset dy="4"/>
<feGaussianBlur stdDeviation="2"/>
<feComposite in2="hardAlpha" operator="out"/>
<feColorMatrix type="matrix" values="0 0 0 0 0 0 0 0 0 0 0 0 0 0 0 0 0 0 0.25 0"/>
<feBlend mode="normal" in2="BackgroundImageFix" result="effect1_dropShadow_811_236"/>
<feBlend mode="normal" in="SourceGraphic" in2="effect1_dropShadow_811_236" result="shape"/>
</filter>
<clipPath id="clip0_811_236">
<rect width="48" height="48" fill="white" transform="translate(0.5 0.5)"/>
</clipPath>
</defs>
</svg>
