<svg width="41" height="39" viewBox="0 0 41 39" fill="none" xmlns="http://www.w3.org/2000/svg">
<path fill-rule="evenodd" clip-rule="evenodd" d="M10.5 8.00036C10.5634 8.00036 10.636 8.00092 10.7136 8.0015C10.9078 8.00296 11.1335 8.00466 11.3255 7.99864C11.6034 7.98994 11.9808 7.96398 12.3578 7.84728C12.7625 7.72202 13.2319 7.47122 13.5744 6.97852C13.9057 6.50198 14 5.9683 14 5.49994C14 5.03166 13.9058 4.49778 13.5741 4.02114C13.2312 3.52828 12.7614 3.2778 12.3568 3.15286C11.9798 3.03646 11.6025 3.01074 11.3248 3.00216C11.1339 2.99628 10.9089 2.998 10.7153 2.99948C10.637 3.00008 10.5637 3.00064 10.5 3.00064V8.00036Z" fill="#626754" fill-opacity="0.57"/>
<path d="M0.79354 22.6172C0.6009 23.547 0.5 24.5074 0.5 25.49C0.5 29.3196 2.03284 32.8138 4.55508 35.4634C5.4553 36.4092 5.9054 36.882 7.79248 37.691C9.67958 38.5 10.9808 38.5 13.5832 38.5H19.4168C22.0192 38.5 23.3204 38.5 25.2076 37.691C27.0946 36.882 27.5448 36.4092 28.445 35.4634C30.9672 32.8138 32.5 29.3196 32.5 25.49C32.5 25.2248 32.4926 24.961 32.4782 24.699C31.2846 24.0674 29.2786 23.4754 27.128 23.1314C20.989 22.1494 17.7512 27.108 11.5672 26.4374C7.13888 25.9572 3.69518 23.8022 0.79354 22.6172Z" fill="#626754"/>
<path d="M11.5676 26.4374C17.7516 27.108 20.9894 22.1494 27.1284 23.1314C29.279 23.4754 31.285 24.0674 32.4786 24.699C32.0396 16.788 25.0538 10.5 16.5004 10.5C8.71261 10.5 2.22435 15.7128 0.793945 22.6172C3.69559 23.8022 7.13929 25.9572 11.5676 26.4374Z" fill="#626754" fill-opacity="0.57"/>
<path d="M22.5 11.5896V6.5C22.5 3.67158 22.5 2.25736 21.6214 1.37868C20.7426 0.5 19.3284 0.5 16.5 0.5C13.6716 0.5 12.2574 0.5 11.3787 1.37868C10.9776 1.77972 10.7596 2.29232 10.6411 3.00004L10.7153 2.99948C10.9089 2.998 11.1339 2.99628 11.3248 3.00216C11.6025 3.01074 11.9798 3.03646 12.3568 3.15286C12.7614 3.2778 13.2312 3.52828 13.5741 4.02114C13.9058 4.49778 14 5.03166 14 5.49994C14 5.9683 13.9057 6.50198 13.5744 6.97852C13.2319 7.47122 12.7625 7.72202 12.3578 7.84728C11.9808 7.96398 11.6034 7.98994 11.3255 7.99864C11.1335 8.00466 10.9076 8.00296 10.7135 8.0015C10.6359 8.00092 10.5633 8.00036 10.5 8.00036V11.5896C12.3529 10.8869 14.3782 10.5 16.5 10.5C18.6218 10.5 20.6472 10.8869 22.5 11.5896Z" fill="#626754"/>
<path d="M0.79354 22.6172C0.6009 23.547 0.5 24.5074 0.5 25.49C0.5 29.3196 2.03284 32.8138 4.55508 35.4634C5.4553 36.4092 5.9054 36.882 7.79248 37.691C9.67958 38.5 10.9808 38.5 13.5832 38.5H19.4168C22.0192 38.5 23.3204 38.5 25.2076 37.691C27.0946 36.882 27.5448 36.4092 28.445 35.4634C30.9672 32.8138 32.5 29.3196 32.5 25.49C32.5 25.2248 32.4926 24.961 32.4782 24.699C31.2846 24.0674 29.2786 23.4754 27.128 23.1314C20.989 22.1494 17.7512 27.108 11.5672 26.4374C7.13888 25.9572 3.69518 23.8022 0.79354 22.6172Z" fill="#626754"/>
<path d="M37.5961 7.2567C40.1025 8.5494 41.1959 11.0494 40.0383 12.8407C38.8805 14.6319 35.9103 15.036 33.4041 13.7433C30.8977 12.4506 29.8043 9.95058 30.9619 8.15934C32.1197 6.36812 35.0899 5.964 37.5961 7.2567Z" fill="#626754"/>
<path d="M22.5 8H25.1394C26.459 8 27.7604 8.30722 28.9406 8.89736L30.5004 9.6773C30.51 9.14566 30.6588 8.62822 30.9618 8.15934C31.2402 7.72884 31.623 7.37846 32.079 7.1125L30.2822 6.21408C28.6854 5.41568 26.9248 5 25.1394 5H22.5V8Z" fill="#626754" fill-opacity="0.57"/>
</svg>
