<svg width="14" height="14" viewBox="0 0 14 14" fill="none" xmlns="http://www.w3.org/2000/svg">
<path d="M13.7156 0.299929C13.8221 0.212565 13.8987 0.0928679 14 0C13.9438 0.405179 13.8412 0.802103 13.7503 1.20006C13.4234 2.53942 13.0078 3.85505 12.4903 5.12562C12.0361 6.23659 11.5007 7.31283 10.8549 8.31305C10.166 9.37071 9.34648 10.3486 8.35655 11.0998C7.51079 11.7481 6.5345 12.2118 5.50594 12.412C5.08224 12.4945 4.6514 12.5361 4.22056 12.5375C3.89329 12.5361 3.58096 12.4192 3.27934 12.2971C3.03876 12.8553 2.83973 13.4342 2.61409 14C2.48681 13.9979 2.37156 13.9309 2.25208 13.8927C1.92903 13.7647 1.59786 13.6602 1.27871 13.5216C1.67546 12.4801 2.05532 11.43 2.51506 10.417C3.03486 9.26959 3.65953 8.16584 4.45562 7.20861C5.15367 6.36661 5.97898 5.64293 6.89326 5.07918C8.00591 4.39024 9.23349 3.92521 10.4883 3.63045C9.90362 3.62288 9.32408 3.73226 8.75136 3.84714C7.55786 4.0996 6.39846 4.5464 5.3423 5.18959C4.46114 5.73167 3.65628 6.41786 2.98908 7.23509C2.53746 7.7837 2.15143 8.39147 1.82805 9.03329C1.59072 9.49488 1.40566 9.98329 1.22741 10.4727C1.17124 10.4297 1.12027 10.3795 1.07676 10.3228C0.689106 9.83471 0.35924 9.28644 0.16054 8.68177C0.0017759 8.19404 -0.0495224 7.66229 0.0533986 7.15564C0.235215 6.18741 0.692677 5.29244 1.2891 4.54055C1.9524 3.70887 2.81636 3.06189 3.77479 2.66978C4.59588 2.32548 5.47899 2.21335 6.34359 2.05444C7.16144 1.92305 7.97799 1.77825 8.79843 1.66577C9.49323 1.5619 10.1877 1.45355 10.8783 1.32044C11.6 1.17598 12.3237 1.01157 13.0081 0.72093C13.2575 0.609488 13.5029 0.479474 13.7156 0.299929Z" fill="white"/>
</svg>
