<svg width="166" height="149" viewBox="0 0 166 149" fill="none" xmlns="http://www.w3.org/2000/svg">
<path d="M105.048 11.7827C107.282 8.01014 109.421 4.17728 111.749 0.462402C119.063 12.737 126.158 25.1426 133.401 37.4618C143.977 55.6613 154.642 73.811 165.191 92.0263C148.075 92.1416 130.955 92.0263 113.836 92.0839C113.194 92.0525 112.499 92.2334 111.888 91.9948C111.413 91.1008 111.715 89.9814 111.584 88.9956C111.02 79.7989 108.087 70.7594 103.145 62.9836C98.7247 55.8343 92.5612 49.8255 85.4827 45.3215C83.0944 49.5843 80.5592 53.7632 78.1054 57.9893C71.5355 69.3542 64.8529 80.6535 58.2883 92.021C63.7702 92.1416 69.2599 92.0394 74.747 92.0734C86.1119 92.0734 97.4768 92.0708 108.842 92.0734C109.78 92.0866 110.75 91.9345 111.663 92.2124C111.933 93.0461 111.723 93.9374 111.697 94.7921C111.382 104.28 108.527 113.66 103.551 121.74C99.1127 129.107 92.8574 135.325 85.6164 139.942C76.7526 145.453 66.342 148.586 55.8764 148.447C44.3096 148.557 32.7691 144.779 23.3862 138.039C16.6748 133.249 11.0802 126.934 7.07429 119.732C2.43134 111.447 -0.030393 101.928 0.153123 92.4248C-0.00679809 79.7176 4.64402 67.1101 12.682 57.3077C16.8924 52.1457 22.0597 47.778 27.7906 44.3856C34.0957 40.7703 41.0745 38.2955 48.2867 37.3438C52.0121 36.7906 55.7925 36.906 59.5441 36.9846C68.7172 37.4697 77.6676 40.516 85.488 45.2822C92.0395 34.1349 98.5307 22.9509 105.048 11.7827Z" fill="#B9B9B9"/>
</svg>
